# xmcd
#
# Track frame offsets: 
#        150
#        17923
#        31645
#        48341
#        62745
#        77707
#        97713
#        111496
#        124720
#        131583
#        143650
#        152950
#        174790
#        195194
#        212152
#        222080
#        233537
#        248600
#        263872
#        287899
#        303697
#
# Disc length: 4223 seconds
#
# Revision: 0
# Processed by: cddbd v1.5.2PL0 Copyright (c) Steve Scherf et al.
# Submitted via: ExactAudioCopy v1.0b1
#
DISCID=1a107d15
DTITLE=Terry Raff - The Best of The Singing Mountain Man-Vol. 1
DYEAR=1998
DGENRE=Country
TTITLE0=Cool Water
TTITLE1=Springtime in the Rockies
TTITLE2=One Empty Cot in the Bunkhouse
TTITLE3=The Preacher and the Bear
TTITLE4=Panhandle Wind
TTITLE5=Spanish is the Loving Tounge
TTITLE6=Love One Another
TTITLE7=Silver Haired Daddy of Mine
TTITLE8=Tight Boots (Poem)
TTITLE9=Colorado
TTITLE10=Green, Green Grass of Home
TTITLE11=Strawberry Roan
TTITLE12=An Old Dakota Dream
TTITLE13=My Woman, My Wife
TTITLE14=I Believe
TTITLE15=My Roots are Buried Here (Poem)
TTITLE16=Old Shep
TTITLE17=When the Cimarron Was Red
TTITLE18=Ballad of Hazel miner
TTITLE19=Night Rider's Lament
TTITLE20=After All These Years
EXTD=
EXTT0=
EXTT1=
EXTT2=
EXTT3=
EXTT4=
EXTT5=
EXTT6=
EXTT7=
EXTT8=
EXTT9=
EXTT10=
EXTT11=
EXTT12=
EXTT13=
EXTT14=
EXTT15=
EXTT16=
EXTT17=
EXTT18=
EXTT19=
EXTT20=
PLAYORDER=
